<svg width="603" height="448" viewBox="0 0 603 448" fill="none" xmlns="http://www.w3.org/2000/svg">
<g clip-path="url(#clip0_181_1068)">
<path d="M224.826 307.763C169.476 336.736 200.644 408.169 218.915 411.166C232.987 413.474 279.249 412.151 301.671 411.166L475.244 291.779L373.679 278.791C342.511 278.791 269.106 284.585 224.826 307.763Z" fill="white"/>
<path d="M301.671 411.166C300.87 411.203 302.538 411.128 301.671 411.166ZM301.671 411.166C279.249 412.151 232.987 413.474 218.915 411.166C200.644 408.169 169.476 336.736 224.826 307.763C269.106 284.585 342.511 278.791 373.679 278.791L475.244 291.779L301.671 411.166Z" stroke="black" stroke-width="2.91102"/>
<path d="M239.871 317.57C278.132 310.776 309.193 331.667 319.94 342.961C321.735 340.628 323.676 338.321 325.772 336.052C322.469 322.565 258.142 308.079 239.871 317.57Z" fill="#000001"/>
<path d="M297.791 412.644C299.149 412.589 300.446 412.534 301.671 412.48L443.44 314.968C437.194 313.005 421.097 306.964 406.674 298.508C308.821 309.286 293.313 379.09 297.791 412.644Z" fill="#0E1729"/>
<path d="M459.658 412.48C530.054 391.499 475.242 296.589 475.242 293.092L448.91 289.725C314.78 297.421 294.862 374.768 301.669 412.48L324.305 585.816H382.635L387.65 412.48H459.658Z" fill="white" stroke="black" stroke-width="2.91102"/>
<path d="M373.678 376.514C382.277 384.507 386.576 403.822 387.651 412.48H395.711C393.561 402.656 386.146 381.709 373.678 376.514Z" fill="#000001"/>
<rect x="11" y="412.292" width="580" height="2.03197" fill="black"/>
<path d="M384.586 109.588C381.755 106.239 374.396 95.9538 367.603 81.6023C369.147 79.9278 372.08 74.8567 371.463 67.9679C363.434 66.8198 358.57 50.746 357.141 42.8527C367.801 37.3554 358.717 22.691 362.199 22.0432C366.059 21.3253 376.094 24.9132 376.094 34.2417C376.094 43.5702 393.288 39.1669 397.709 37.112C408.516 32.089 404.657 44.2885 400.025 55.7694C397.555 59.7879 406.2 67.4899 410.832 70.8386C412.067 82.3198 401.054 100.02 395.393 107.435C396.165 128.962 396.319 172.017 390.761 172.017C387.056 165.128 385.1 127.527 384.586 109.588Z" fill="white" stroke="black" stroke-width="1.94068"/>
<path d="M377.637 44.2839C376.35 45.4798 374.549 48.8764 377.637 52.8948" stroke="#241715" stroke-width="0.970341"/>
<path d="M383.812 55.0527C383.297 57.6838 381.033 61.6544 376.092 56.4879" stroke="#241715" stroke-width="0.970341"/>
<path d="M400.795 46.4385C401.824 43.8074 403.111 38.6886 400.023 39.2627" stroke="#241715" stroke-width="0.970341"/>
<path d="M370.638 75.8599C371.319 73.669 371.733 70.9933 371.462 67.9668C375.739 70.1199 383.04 70.8375 398.479 60.7907C399.095 68.2535 380.175 73.9463 370.638 75.8599Z" fill="black"/>
<path d="M410.059 22.0425C415.463 34.2414 403.111 50.7457 400.024 55.7687C404.655 44.2878 407.743 32.0883 397.708 37.1113C393.356 39.2898 376.093 43.5695 376.093 34.241C376.093 24.9125 366.058 21.3246 362.198 22.0425C358.716 22.6903 367.8 37.3547 357.14 42.852C355.984 43.4479 354.596 43.9362 352.935 44.2871C356.795 39.2641 355.251 39.9816 352.163 27.7828C349.075 15.584 362.97 12.714 376.093 11.2789C389.216 9.8437 404.655 9.8437 410.059 22.0425Z" fill="black"/>
<path d="M482.621 99.542C472.74 87.4867 430.643 75.3835 410.83 70.8389C412.065 82.3201 401.052 100.02 395.392 107.435C396.163 128.963 396.318 172.017 390.76 172.017C387.054 165.129 385.099 127.528 384.584 109.588C381.754 106.239 374.394 95.9541 367.601 81.6025C366.057 85.908 324.372 115.329 317.425 124.657C310.477 133.986 308.161 223.683 308.161 231.576C308.161 239.47 305.073 293.288 330.548 293.288C350.927 293.288 434.246 295.919 476.446 296.876C482.621 236.121 492.502 111.597 482.621 99.542Z" fill="black"/>
<path d="M308.163 231.572C350.363 223.439 434.763 214.494 434.763 243.771C434.763 273.048 395.651 289.594 376.095 294.207M434.763 77.2248C429.617 79.4002 418.707 89.635 416.236 113.172C413.149 142.592 403.237 152.638 395.207 152.638M387.327 154.074C380.753 157.422 366.368 159.958 361.428 143.31C355.252 122.5 342.368 111.019 327.967 114.607M457.922 85.1865C456.378 84.579 431.675 100.255 429.359 136.134C427.044 172.013 402.341 239.465 351.393 203.586C332.093 185.646 313.497 174.405 310.374 175.601M367.604 293.99C374.551 287.775 386.593 273.335 379.183 265.298C371.772 257.261 331.237 268.169 311.896 274.627M486.329 118.195C469.655 127.762 438.932 158.235 449.43 203.586C458.694 229.419 475.622 226.788 482.928 222.243M480.135 257.405C470.157 257.527 451.128 265.485 454.834 296.337" stroke="white" stroke-width="0.970341"/>
<path d="M390.76 293.282V172.728" stroke="#027269" stroke-width="0.970341"/>
<path d="M391.223 292.108L387.429 265.887C378.802 267.341 360.835 268.751 346.957 269.973C332.427 271.254 328.765 278.345 338.518 280.61C333.417 280.018 327.705 286.556 335.845 289.484C329.874 291.455 341.685 293.655 347.474 293.666C344.161 294.131 338.415 294.99 339.196 298.253C339.977 301.517 374.206 295.516 391.223 292.108Z" fill="white"/>
<path d="M391.224 292.108L387.43 265.887C385.423 266.226 382.91 266.562 380.061 266.893L371.43 295.759C378.682 294.534 385.821 293.191 391.224 292.108Z" fill="black"/>
<path d="M347.711 293.859L359.714 290.719" stroke="black" stroke-width="0.970341"/>
<path d="M338.595 286.852L359.639 284.478" stroke="black" stroke-width="0.970341"/>
<path d="M338.518 280.609L360.012 277.154" stroke="black" stroke-width="0.970341"/>
<path d="M505.524 269.082C507.392 241.6 509.431 103.109 476.083 95.643C437.535 87.0135 438.04 219.089 454.775 249.22L376.062 256.658L383.448 302.31C421.716 299.825 502.433 314.556 505.524 269.082Z" fill="black"/>
<path d="M476.082 95.6427C437.535 87.0132 438.04 219.088 454.775 249.219L376.062 256.658" stroke="white" stroke-width="0.970341"/>
<path d="M492.139 115.545C480.228 116.749 453.756 123.142 447.263 138.126M499.55 139.657C488.816 144.021 463.685 158.714 460.515 173.796C457.345 188.878 490.918 183.786 504.491 180.989M505.314 207.397C494.032 212.293 454.485 215.543 445.616 204.335M505.726 254.471C494.171 247.953 460.908 234.942 452.203 239.928M420.913 252.175C415.973 262.125 423.71 298.715 445.616 302.693" stroke="white" stroke-width="0.970341"/>
<path d="M171.318 199.923H299.171C302.287 199.923 305.1 201.785 306.317 204.653L344.499 294.622C345.716 297.49 348.529 299.352 351.645 299.352H453.711C455.474 299.352 456.904 300.781 456.904 302.545C456.904 304.308 455.474 305.737 453.711 305.737H209.835C206.725 305.737 203.915 303.881 202.695 301.021L164.177 210.731C161.993 205.61 165.75 199.923 171.318 199.923Z" fill="white" stroke="black" stroke-width="2.91102"/>
<path d="M305.135 201.771L348.728 299.352H347.039C343.98 299.352 341.206 297.555 339.955 294.763L299.438 204.319C298.513 202.255 300.023 199.923 302.286 199.923C303.517 199.923 304.633 200.647 305.135 201.771Z" fill="black"/>
<path d="M202.695 301.021L164.177 210.731C161.993 205.61 165.75 199.923 171.318 199.923H177.752C178.835 199.923 179.903 200.15 180.899 200.574C184.552 202.129 190.529 204.558 200.251 209.124C233.835 224.898 238.077 258.416 231.007 274.847C225.275 288.168 301.039 301.936 330.805 305.737H209.835C206.725 305.737 203.915 303.881 202.695 301.021Z" fill="black"/>
<ellipse cx="8.36209" cy="9.10196" rx="8.36209" ry="9.10196" transform="matrix(-0.944258 0.329206 0.374166 0.927362 253.537 232.784)" fill="black"/>
</g>
<defs>
<clipPath id="clip0_181_1068">
<rect width="603" height="448" fill="white"/>
</clipPath>
</defs>
</svg>
