<svg width="70" height="79" viewBox="0 0 70 79" fill="none" xmlns="http://www.w3.org/2000/svg">
<path d="M12.2915 48.3457L1.10082 25.0162C0.782402 24.3524 1.26622 23.5837 2.00246 23.5837H27.0082C27.3791 23.5837 27.7195 23.789 27.8926 24.117L40.2024 47.4465C40.5538 48.1124 40.0709 48.9132 39.3179 48.9132H13.1932C12.8085 48.9132 12.4579 48.6925 12.2915 48.3457Z" stroke="black" stroke-width="2"/>
<path d="M33.1244 62.7631L41.1501 51.5464C41.5865 50.9365 42.5562 51.0252 42.9038 51.7069L49.5523 64.7436C49.7099 65.0527 49.6925 65.414 49.5062 65.6981L41.7754 77.4932C41.3553 78.1342 40.3555 78.0618 39.9999 77.3645L33.0566 63.7493C32.8926 63.4278 32.9185 63.0509 33.1244 62.7631Z" stroke="black" stroke-width="2"/>
<path d="M53.7989 64.5628L67.819 63.8633C68.5497 63.8269 69.0053 63.0025 68.6599 62.3417L61.9349 49.4775C61.7668 49.156 61.4422 48.9586 61.0866 48.9618L46.7671 49.0886C46.0192 49.0953 45.534 49.9352 45.8875 50.6114L52.9118 64.0482C53.0865 64.3823 53.4294 64.5812 53.7989 64.5628Z" stroke="black" stroke-width="2"/>
<path d="M59.6936 24.6648L46.6666 1.50977C46.313 0.881214 45.4305 0.822292 44.9965 1.39826L30.7658 20.2818C30.5346 20.5886 30.4996 21.0007 30.6757 21.3422L43.0616 45.3479C43.3995 46.0027 44.3055 46.0796 44.7489 45.4912L59.6207 25.757C59.8598 25.4397 59.8884 25.011 59.6936 24.6648Z" stroke="black" stroke-width="2"/>
</svg>
